<?xml version="1.0" encoding="UTF-8" standalone="no"?>
<svg
   height="24px"
   viewBox="0 -960 960 960"
   width="24px"
   fill="#1f1f1f"
   version="1.1"
   id="svg1"
   sodipodi:docname="bounds.svg"
   xmlns:sodipodi="http://sodipodi.sourceforge.net/DTD/sodipodi-0.dtd"
   xmlns="http://www.w3.org/2000/svg"
   xmlns:svg="http://www.w3.org/2000/svg">
  <defs
     id="defs1" />
  <sodipodi:namedview
     id="namedview1"
     pagecolor="#ffffff"
     bordercolor="#000000"
     borderopacity="0.25"/>
  <path
     d="M200-80q-50 0-85-35t-35-85q0-39 22.5-69.5T160-313v-334q-35-13-57.5-43.5T80-760q0-50 35-85t85-35q39 0 69.5 22.5T313-800h334q12-35 42.5-57.5T760-880q50 0 85 35t35 85q0 40-22.5 70.5T800-647v334q35 13 57.5 43.5T880-200q0 50-35 85t-85 35q-39 0-69.5-22.5T647-160H313q-13 35-43.5 57.5T200-80Zm0-640q17 0 28.5-11.5T240-760q0-17-11.5-28.5T200-800q-17 0-28.5 11.5T160-760q0 17 11.5 28.5T200-720Zm560 0q17 0 28.5-11.5T800-760q0-17-11.5-28.5T760-800q-17 0-28.5 11.5T720-760q0 17 11.5 28.5T760-720ZM313-240h334q9-26 28-45t45-28v-334q-26-9-45-28t-28-45H313q-9 26-28 45t-45 28v334q26 9 45 28t28 45Zm447 80q17 0 28.5-11.5T800-200q0-17-11.5-28.5T760-240q-17 0-28.5 11.5T720-200q0 17 11.5 28.5T760-160Zm-560 0q17 0 28.5-11.5T240-200q0-17-11.5-28.5T200-240q-17 0-28.5 11.5T160-200q0 17 11.5 28.5T200-160Zm0-600Zm560 0Zm0 560Zm-560 0Z"
     id="path1" />
  <path
     style="fill:#4dcbdc;stroke-width:0.0288809"
     d="M 4.7488621,5.9550784 C 4.2529771,5.8146516 3.9611142,5.3686249 4.0305051,4.857281 4.0778892,4.5081062 4.3131291,4.2042893 4.627045,4.0868383 c 0.181212,-0.0678 0.4984903,-0.082945 0.6678075,-0.031876 0.2627856,0.07926 0.4811221,0.2771207 0.6071577,0.5502182 0.094185,0.2040836 0.1027313,0.5144132 0.020715,0.7522204 C 5.8491612,5.5706996 5.577883,5.846215 5.3718415,5.9168887 5.1758036,5.9841307 4.9091729,6.0004757 4.7488621,5.9550784 Z"
     id="path2"
     transform="matrix(40,0,0,40,0,-960)" />
  <path
     style="fill:#4dcbdc;stroke-width:0.0288809"
     d="m 4.8503903,19.968444 c -0.3372144,-0.04279 -0.6472187,-0.28456 -0.763552,-0.595489 -0.0678,-0.181212 -0.082945,-0.49849 -0.031876,-0.667807 0.07926,-0.262786 0.2771207,-0.481123 0.5502182,-0.607158 0.1258989,-0.0581 0.2065014,-0.07409 0.3767692,-0.07471 0.3201686,-0.0012 0.4940366,0.06852 0.710144,0.284624 0.2161074,0.216107 0.2857932,0.389975 0.2846236,0.710144 -0.0022,0.601812 -0.5082545,1.028822 -1.1263268,0.950393 z"
     id="path3"
     transform="matrix(40,0,0,40,0,-960)" />
  <path
     style="fill:#4dcbdc;stroke-width:0.0288809"
     d="m 7.8122744,17.940142 c 0,-0.07282 -0.2529545,-0.554727 -0.3841059,-0.73176 C 7.2602005,16.981653 7.018347,16.7398 6.7916179,16.571832 6.614585,16.44068 6.1326817,16.187726 6.0598579,16.187726 c -0.0315,0 -0.038197,-0.734233 -0.038197,-4.187726 0,-3.4534931 0.0067,-4.1877256 0.038197,-4.1877256 0.072086,0 0.5539035,-0.2523443 0.7277211,-0.3811327 C 7.0304045,7.2512226 7.3280452,6.9435913 7.4790221,6.7164897 7.6130874,6.5148266 7.8122744,6.1215879 7.8122744,6.0585765 c 0,-0.029797 0.8062278,-0.036916 4.1809466,-0.036916 h 4.180947 l 0.04936,0.1371842 c 0.135191,0.3757368 0.477488,0.8465832 0.837313,1.1517679 0.200166,0.1697701 0.568406,0.3896146 0.780315,0.4658603 l 0.137184,0.049359 V 12 16.174168 l -0.137184,0.04936 c -0.664277,0.239009 -1.378619,0.953351 -1.617628,1.617628 l -0.04936,0.137184 h -4.180947 c -3.4478715,0 -4.1809466,-0.0067 -4.1809466,-0.0382 z"
     id="path4"
     transform="matrix(40,0,0,40,0,-960)" />
  <path
     style="fill:#4dcbdc;stroke-width:0.0288809"
     d="M 18.731592,5.9486938 C 18.526394,5.8911769 18.413174,5.8185863 18.256,5.6437713 18.090935,5.4601785 18.022249,5.264846 18.023283,4.9819495 c 9.06e-4,-0.2479454 0.08088,-0.459782 0.243526,-0.6450211 0.18611,-0.2119674 0.419904,-0.3107153 0.737582,-0.3115332 0.412355,-0.00106 0.772176,0.2365668 0.90803,0.5996708 0.06855,0.1832017 0.08395,0.499586 0.03262,0.6697865 -0.149299,0.4949998 -0.707357,0.7956983 -1.213446,0.6538413 z"
     id="path5"
     transform="matrix(40,0,0,40,0,-960)" />
  <path
     style="fill:#4dcbdc;stroke-width:0.0288809"
     d="m 18.835724,19.965473 c -0.319421,-0.04112 -0.589585,-0.249589 -0.736751,-0.568505 -0.09521,-0.206321 -0.104099,-0.515446 -0.0217,-0.754369 0.07618,-0.220896 0.344428,-0.48914 0.565324,-0.565324 0.237808,-0.08202 0.548137,-0.07347 0.752221,0.02071 0.198593,0.09165 0.354203,0.225948 0.448757,0.387292 0.102105,0.174228 0.130429,0.286443 0.131028,0.519109 7.17e-4,0.278627 -0.08263,0.49232 -0.265098,0.679649 -0.228131,0.234213 -0.517243,0.327332 -0.873783,0.281433 z"
     id="path6"
     transform="matrix(40,0,0,40,0,-960)" />
</svg>
