<?xml version="1.0" encoding="UTF-8" standalone="no"?>
<svg
   height="24"
   viewBox="0 -960 960 960"
   width="24"
   xmlns="http://www.w3.org/2000/svg"
   xmlns:svg="http://www.w3.org/2000/svg">
  <path
     d="M570-104q-23 23-57 23t-57-23L104-456q-11-11-17.5-26T80-514v-286q0-33 23.5-56.5T160-880h286q17 0 32 6.5t26 17.5l352 353q23 23 23 56.5T856-390L570-104Zm-57-56 286-286-353-354H160v286l353 354ZM260-640q25 0 42.5-17.5T320-700q0-25-17.5-42.5T260-760q-25 0-42.5 17.5T200-700q0 25 17.5 42.5T260-640ZM160-800Z"
     id="path1" />
  <path
     style="fill:#4dcbdc;stroke-width:0.0288809"
     d="M 8.4097484,15.547431 4.00109,11.119134 4.000545,7.5595668 4,4 h 3.5597219 3.5597221 l 3.595513,3.6029262 c 1.977532,1.9816095 3.962628,3.9733578 4.411325,4.4261078 l 0.815813,0.823182 -3.561844,3.561757 -3.561844,3.561756 z M 7.0180505,7.9260185 C 7.5991957,7.7079827 7.9673981,7.2132121 8.0053955,6.599278 8.0337002,6.1419521 7.8839298,5.7413975 7.5656032,5.4230707 6.9807948,4.8382623 6.0171689,4.8409672 5.429068,5.429068 4.6008923,6.2572438 4.9943507,7.6826357 6.1308778,7.9715321 c 0.2369917,0.060241 0.6636354,0.038354 0.8871727,-0.045514 z"
     id="path2"
     transform="matrix(40,0,0,40,0,-960)" />
</svg>
