<?xml version="1.0" encoding="UTF-8" standalone="no"?>
<svg
   height="24px"
   viewBox="0 -960 960 960"
   width="24px"
   fill="#e3e3e3"
   version="1.1"
   id="svg1"
   xmlns:xlink="http://www.w3.org/1999/xlink"
   xmlns="http://www.w3.org/2000/svg"
   xmlns:svg="http://www.w3.org/2000/svg">
  <defs
     id="defs1">
    <linearGradient
       id="swatch2">
      <stop
         style="stop-color:#000000;stop-opacity:1;"
         offset="0"
         id="stop2" />
    </linearGradient>
    <linearGradient
       id="swatch1">
      <stop
         style="stop-color:#4dcbdc;stop-opacity:1;"
         offset="0"
         id="stop1" />
    </linearGradient>
    <linearGradient
       xlink:href="#swatch1"
       id="linearGradient1"
       x1="160"
       y1="-480"
       x2="800"
       y2="-480"
       gradientUnits="userSpaceOnUse" />
    <linearGradient
       xlink:href="#swatch2"
       id="linearGradient2"
       x1="160"
       y1="-480"
       x2="800"
       y2="-480"
       gradientUnits="userSpaceOnUse" />
  </defs>
  <path
     d="M480-160q-134 0-227-93t-93-227q0-134 93-227t227-93q69 0 132 28.5T720-690v-110h80v280H520v-80h168q-32-56-87.5-88T480-720q-100 0-170 70t-70 170q0 100 70 170t170 70q77 0 139-44t87-116h84q-28 106-114 173t-196 67Z"
     id="path1"
     style="fill:url(#linearGradient1);stroke:url(#linearGradient2);stroke-width:30.2362204;stroke-dasharray:none" />
</svg>
