<?xml version="1.0" encoding="UTF-8" standalone="no"?>
<svg
   height="24"
   viewBox="0 -960 960 960"
   width="24"
   version="1.1"
   id="svg1"
   xmlns:xlink="http://www.w3.org/1999/xlink"
   xmlns="http://www.w3.org/2000/svg"
   xmlns:svg="http://www.w3.org/2000/svg">
  <defs
     id="defs1">
    <linearGradient
       id="swatch2">
      <stop
         style="stop-color:#000000;stop-opacity:1;"
         offset="0"
         id="stop2" />
    </linearGradient>
    <linearGradient
       id="swatch1">
      <stop
         style="stop-color:#4dcbdc;stop-opacity:1;"
         offset="0"
         id="stop1" />
    </linearGradient>
    <linearGradient
       xlink:href="#swatch1"
       id="linearGradient1"
       x1="100"
       y1="-480.5"
       x2="841"
       y2="-480.5"
       gradientUnits="userSpaceOnUse" />
    <linearGradient
       xlink:href="#swatch2"
       id="linearGradient2"
       x1="100"
       y1="-480.5"
       x2="841"
       y2="-480.5"
       gradientUnits="userSpaceOnUse" />
  </defs>
  <path
     d="M756-120 537-339l84-84 219 219-84 84Zm-552 0-84-84 276-276-68-68-28 28-51-51v82l-28 28-121-121 28-28h82l-50-50 142-142q20-20 43-29t47-9q24 0 47 9t43 29l-92 92 50 50-28 28 68 68 90-90q-4-11-6.5-23t-2.5-24q0-59 40.5-99.5T701-841q15 0 28.5 3t27.5 9l-99 99 72 72 99-99q7 14 9.5 27.5T841-701q0 59-40.5 99.5T701-561q-12 0-24-2t-23-7L204-120Z"
     id="path1"
     style="stroke-width:30.2362204;stroke-dasharray:none;fill:url(#linearGradient1);stroke:url(#linearGradient2)" />
</svg>
