<?xml version="1.0" encoding="UTF-8" standalone="no"?>
<svg
   height="24"
   viewBox="0 -960 960 960"
   width="24"
   version="1.1"
   id="svg1"
   sodipodi:docname="upload_project.svg"
   inkscape:version="1.3.1 (91b66b0, 2023-11-16)"
   xmlns:inkscape="http://www.inkscape.org/namespaces/inkscape"
   xmlns:sodipodi="http://sodipodi.sourceforge.net/DTD/sodipodi-0.dtd"
   xmlns="http://www.w3.org/2000/svg"
   xmlns:svg="http://www.w3.org/2000/svg">
  <defs
     id="defs1" />
  <sodipodi:namedview
     id="namedview1"
     pagecolor="#ffffff"
     bordercolor="#666666"
     borderopacity="1.0"
     inkscape:showpageshadow="2"
     inkscape:pageopacity="0.0"
     inkscape:pagecheckerboard="0"
     inkscape:deskcolor="#d1d1d1"
     inkscape:zoom="31.04761"
     inkscape:cx="14.590495"
     inkscape:cy="12.094329"
     inkscape:window-width="1632"
     inkscape:window-height="1200"
     inkscape:window-x="2323"
     inkscape:window-y="340"
     inkscape:window-maximized="0"
     inkscape:current-layer="svg1" />
  <path
     d="m 440,-200 h 80 v -167 l 64,64 56,-57 -160,-160 -160,160 57,56 63,-63 z m 80,-400 V -800 H 240 v 640 H 720 V -600 Z M 240,-800 v 200 -200 640 z"
     style="fill:#4dcbdc"
     id="path2"
     sodipodi:nodetypes="cccccccccccccccccccccc" />
  <path
     d="M440-200h80v-167l64 64 56-57-160-160-160 160 57 56 63-63v167ZM240-80q-33 0-56.5-23.5T160-160v-640q0-33 23.5-56.5T240-880h320l240 240v480q0 33-23.5 56.5T720-80H240Zm280-520v-200H240v640h480v-440H520ZM240-800v200-200 640-640Z"
     style="fill:#000000;fill-opacity:1"
     id="path1" />
</svg>
