<?xml version="1.0" encoding="UTF-8" standalone="no"?>
<svg
   height="24"
   viewBox="0 -960 960 960"
   width="24"
   xmlns="http://www.w3.org/2000/svg"
   xmlns:svg="http://www.w3.org/2000/svg">
  <path
     d="m600-120-240-84-186 72q-20 8-37-4.5T120-170v-560q0-13 7.5-23t20.5-15l212-72 240 84 186-72q20-8 37 4.5t17 33.5v560q0 13-7.5 23T812-192l-212 72Zm-40-98v-468l-160-56v468l160 56Zm80 0 120-40v-474l-120 46v468Zm-440-10 120-46v-468l-120 40v474Zm440-458v468-468Zm-320-56v468-468Z"
     id="path1" />
  <path
     style="fill:#4dcbdc;stroke-width:0.0288809"
     d="M 5.0108303,12.363417 V 6.4596852 L 6.4620939,5.9764913 c 0.7981949,-0.2657567 1.467509,-0.4891684 1.4873646,-0.4964705 0.028805,-0.010593 0.036101,1.1656837 0.036101,5.8206582 0,5.529177 -0.00264,5.834991 -0.050542,5.854144 -0.2227035,0.08904 -2.9005655,1.112325 -2.9108862,1.112325 -0.00732,0 -0.013302,-2.656679 -0.013302,-5.903731 z"
     id="path2"
     transform="matrix(40,0,0,40,0,-960)" />
  <path
     style="fill:#4dcbdc;stroke-width:0.0288809"
     d="m 12.361011,17.962144 c -0.873646,-0.307589 -1.76065,-0.619689 -1.971119,-0.693555 L 10.00722,17.134287 v -5.833771 c 0,-5.5319698 0.0026,-5.8327738 0.05027,-5.8144824 0.04656,0.017866 3.537982,1.2415868 3.812549,1.336273 l 0.122744,0.042329 v 5.8312204 c 0,3.207171 -0.0097,5.829942 -0.02166,5.82838 -0.01191,-0.0016 -0.736462,-0.254504 -1.610108,-0.562092 z"
     id="path3"
     transform="matrix(40,0,0,40,0,-960)" />
  <path
     style="fill:#4dcbdc;stroke-width:0.0288809"
     d="m 16.01444,12.699321 c 0,-5.5291767 0.0026,-5.834991 0.05054,-5.8541436 0.222703,-0.089045 2.900565,-1.1123254 2.910886,-1.1123254 0.0073,0 0.0133,2.6566791 0.0133,5.903731 v 5.903732 l -1.451264,0.483194 c -0.798195,0.265757 -1.467509,0.489168 -1.487364,0.49647 -0.02881,0.01059 -0.0361,-1.165684 -0.0361,-5.820658 z"
     id="path4"
     transform="matrix(40,0,0,40,0,-960)" />
</svg>
